<?xml version="1.0" standalone="no"?>
<!DOCTYPE svg PUBLIC "-//W3C//DTD SVG 20010904//EN"
 "http://www.w3.org/TR/2001/REC-SVG-20010904/DTD/svg10.dtd">
<svg version="1.0" xmlns="http://www.w3.org/2000/svg"
 width="100.000000pt" height="90.000000pt" viewBox="0 0 100.000000 90.000000"
 preserveAspectRatio="xMidYMid meet">
<g transform="translate(0.000000,90.000000) scale(0.100000,-0.100000)"
fill="#926F34" stroke="none">
<path d="M473 832 c-19 -9 -33 -23 -33 -33 0 -27 -17 -32 -23 -8 -5 17 -11 20
-29 15 -13 -3 -31 -6 -40 -6 -9 0 -29 -15 -43 -34 -22 -29 -24 -38 -15 -55 12
-24 8 -26 -21 -11 -27 15 -75 -32 -83 -82 -6 -31 -3 -39 14 -48 24 -13 18 -30
-9 -23 -14 3 -21 -3 -30 -28 -22 -63 -4 -119 38 -119 l26 0 -23 -18 c-31 -24
-21 -77 21 -114 30 -25 33 -25 60 -12 l28 15 -16 -25 c-27 -40 11 -89 78 -99
33 -5 39 -3 52 21 l14 27 1 -31 c0 -26 6 -33 38 -46 33 -12 41 -12 75 1 34 14
38 19 34 45 l-4 30 22 -26 c18 -21 27 -24 57 -19 46 8 96 64 78 86 -17 20 -7
29 17 17 28 -15 78 33 86 81 4 28 2 40 -9 44 -22 8 -17 32 5 26 29 -7 48 60
31 111 -9 29 -17 36 -38 36 -27 1 -27 1 -7 18 32 28 22 84 -21 117 -28 22 -38
24 -50 14 -19 -16 -29 -5 -16 17 16 28 -29 80 -76 88 -31 5 -40 2 -54 -17
l-18 -22 0 25 c0 21 -8 29 -37 40 -21 8 -40 15 -43 16 -3 1 -20 -6 -37 -14z
m91 -58 c5 -17 -2 -36 -20 -64 -15 -22 -28 -40 -29 -40 -11 0 -55 81 -55 101
0 51 91 54 104 3z m-154 -16 c15 -18 18 -33 13 -63 -3 -22 -7 -41 -8 -43 -2
-2 -21 2 -42 8 -29 9 -42 20 -51 42 -10 26 -8 33 13 54 30 30 52 30 75 2z
m263 13 c51 -20 46 -95 -6 -105 -17 -3 -38 -13 -46 -20 -14 -13 -16 -9 -16 37
0 51 17 97 35 97 5 0 20 -4 33 -9z m-189 -135 c-7 -18 -13 -19 -31 -8 -8 5
-10 21 -6 46 l6 38 19 -30 c10 -16 16 -37 12 -46z m90 -6 c-12 -12 -16 -12
-30 2 -15 15 -14 18 7 48 l24 32 7 -34 c5 -23 2 -37 -8 -48z m-286 36 c24 -13
61 -80 50 -92 -3 -2 -23 -6 -46 -9 -74 -9 -103 42 -54 98 18 21 16 20 50 3z
m501 -3 c54 -53 18 -108 -63 -97 l-45 7 14 28 c8 15 15 34 15 42 0 11 16 21
58 36 2 1 11 -7 21 -16z m-396 -36 c24 -9 22 -47 -3 -47 -13 0 -25 12 -35 36
-19 46 -19 50 3 32 9 -8 25 -18 35 -21z m277 -17 c-16 -38 -50 -42 -50 -5 0
18 5 25 19 25 11 0 23 5 26 11 14 21 17 -1 5 -31z m-95 -6 c15 10 24 13 21 7
-11 -18 4 -51 23 -51 26 0 32 -10 19 -33 -8 -16 -7 -23 6 -32 20 -15 20 -25 0
-39 -12 -9 -13 -17 -4 -40 10 -27 9 -28 -15 -24 -21 4 -25 1 -25 -17 0 -30 -9
-36 -33 -23 -18 9 -23 7 -36 -11 l-15 -23 -16 22 c-14 18 -20 20 -37 12 -23
-13 -33 -7 -33 20 0 13 -7 18 -25 18 -28 0 -29 3 -14 32 9 16 7 23 -12 36
l-22 15 22 18 c18 15 20 22 12 38 -15 28 -14 31 14 31 20 0 25 5 25 25 0 28 3
29 32 14 16 -9 23 -7 35 11 l16 23 17 -24 c18 -22 18 -22 45 -5z m-215 -78 c0
-31 -20 -38 -48 -16 -28 23 -28 28 1 33 43 8 47 7 47 -17z m358 18 c29 -8 28
-16 -7 -37 -24 -14 -31 -15 -40 -3 -13 15 -5 46 13 46 6 0 21 -3 34 -6z m-409
-67 c2 -18 -56 -56 -86 -57 -25 0 -33 5 -41 28 -12 35 3 69 37 80 21 7 32 4
58 -17 17 -14 32 -30 32 -34z m536 19 c9 -46 -8 -76 -43 -76 -24 1 -82 39 -82
55 0 18 59 54 87 55 29 0 33 -4 38 -34z m-488 -81 c-5 -11 -14 -14 -34 -9 -39
9 -39 10 -7 38 28 24 29 24 38 6 5 -10 6 -26 3 -35z m349 31 c7 -8 19 -16 26
-19 18 -6 8 -14 -29 -21 -25 -6 -32 -4 -35 11 -3 15 9 41 20 43 2 0 10 -6 18
-14z m-368 -71 c12 -11 -27 -79 -51 -92 -26 -13 -31 -13 -47 2 -53 48 -18 110
55 99 22 -3 42 -8 43 -9z m72 -27 c0 -10 -14 -25 -31 -34 l-32 -16 8 29 c4 15
8 35 9 44 1 22 46 0 46 -23z m388 26 c27 -18 21 -60 -11 -85 -28 -23 -64 -6
-83 39 -19 47 -18 50 14 55 51 8 58 7 80 -9z m-120 -60 c-2 -1 -15 0 -30 3
-21 4 -28 11 -28 28 0 36 32 37 48 1 7 -16 11 -30 10 -32z m-192 1 c3 -8 -3
-29 -14 -46 l-19 -31 -6 38 c-4 25 -2 41 6 46 18 12 27 10 33 -7z m92 3 c5 -7
7 -27 5 -45 l-5 -32 -25 30 c-20 24 -23 32 -13 44 15 18 24 19 38 3z m-164
-126 c-12 -19 -21 -22 -42 -17 -31 7 -52 30 -52 57 0 22 37 61 50 53 6 -4 10
-2 10 4 0 5 8 11 18 13 25 5 37 -78 16 -110z m291 56 c7 -31 -9 -68 -30 -68
-7 0 -19 -2 -27 -5 -7 -2 -21 7 -31 20 -14 20 -17 35 -12 69 l7 43 44 -16 c33
-12 45 -22 49 -43z m-135 -54 c0 -40 -42 -69 -75 -52 -43 23 -46 55 -9 103
l26 34 29 -33 c16 -19 29 -42 29 -52z"/>
<path d="M246 773 c-6 -14 -5 -15 5 -6 7 7 10 15 7 18 -3 3 -9 -2 -12 -12z"/>
</g>
</svg>
