<?xml version="1.0" standalone="no"?>
<!DOCTYPE svg PUBLIC "-//W3C//DTD SVG 20010904//EN"
 "http://www.w3.org/TR/2001/REC-SVG-20010904/DTD/svg10.dtd">
<svg version="1.0" xmlns="http://www.w3.org/2000/svg"
 width="104.000000pt" height="88.000000pt" viewBox="0 0 104.000000 88.000000"
 preserveAspectRatio="xMidYMid meet">
<g transform="translate(0.000000,88.000000) scale(0.100000,-0.100000)"
fill="#926F34" stroke="none">
<path d="M639 844 c-2 -5 -35 -31 -72 -57 l-68 -47 -75 50 c-42 28 -77 50 -78
50 -2 0 -11 -40 -21 -89 l-17 -89 -89 -18 c-49 -10 -88 -20 -87 -23 2 -4 23
-37 48 -76 25 -38 44 -73 43 -77 -6 -16 -74 -117 -83 -123 -21 -13 -10 -35 18
-36 15 0 54 -6 87 -13 l60 -12 19 -92 19 -91 73 50 c40 27 76 49 80 49 4 0 40
-22 80 -49 l72 -49 17 76 c9 42 18 84 21 93 3 11 28 19 87 29 45 7 85 14 89
16 4 3 -16 37 -43 76 -27 39 -49 75 -49 80 0 5 22 42 50 83 l49 73 -72 12
c-115 20 -112 17 -127 107 -13 79 -24 114 -31 97z m-260 -55 c-15 -9 -32 -2
-24 11 3 5 13 6 21 3 12 -4 13 -8 3 -14z m259 -1 c-1 -13 4 -48 11 -78 11 -53
11 -55 -16 -82 -16 -15 -41 -29 -57 -32 -26 -5 -27 -4 -14 12 28 32 73 162 57
162 -9 0 -52 -85 -73 -144 -11 -33 -36 1 -36 49 0 39 4 46 36 66 20 12 47 32
59 45 30 30 33 30 33 2z m-203 -39 c46 -31 46 -32 43 -82 -2 -28 -7 -52 -13
-53 -5 -2 -26 35 -46 81 -21 47 -35 85 -33 85 1 0 24 -14 49 -31z m-45 -51
c12 -35 26 -67 31 -72 5 -6 9 -15 9 -22 0 -19 -40 -4 -69 27 -26 27 -27 30
-17 83 6 30 13 53 17 51 3 -3 16 -33 29 -67z m-17 -138 c6 -23 -10 -26 -38 -7
-11 8 -44 22 -72 32 -29 11 -53 22 -53 26 0 3 24 10 53 15 49 9 53 8 78 -18
15 -15 29 -37 32 -48z m399 60 c16 0 28 -4 28 -10 0 -5 -8 -10 -17 -10 -10 0
-49 -14 -88 -30 -38 -17 -71 -30 -72 -30 -2 0 -3 8 -3 17 0 9 14 31 31 49 28
29 34 31 62 23 18 -5 44 -9 59 -9z m-509 -66 c34 -15 74 -28 90 -28 l28 -1
-22 -17 c-12 -10 -35 -18 -51 -18 -16 0 -39 -5 -50 -11 -15 -8 -19 -8 -14 0 4
6 -6 32 -23 57 -17 25 -31 50 -31 57 0 7 -4 6 -10 -3 -11 -17 -13 -9 -3 16 6
16 7 16 16 -3 5 -12 36 -33 70 -49z m560 54 c-4 -7 -24 -37 -45 -67 -21 -29
-35 -59 -31 -65 5 -7 2 -7 -8 1 -8 6 -32 13 -53 15 -62 5 -53 23 23 53 39 14
81 37 93 51 25 26 33 31 21 12z m-305 -18 c8 -14 23 -20 47 -20 32 0 35 -2 30
-23 -4 -15 1 -32 16 -51 l21 -27 -21 -23 c-17 -18 -20 -30 -15 -50 6 -27 5
-27 -27 -22 -25 4 -36 0 -47 -15 -17 -24 -34 -24 -50 1 -9 15 -19 18 -42 14
-29 -6 -30 -5 -30 29 0 26 -6 40 -22 51 l-22 16 22 23 c12 13 22 35 22 50 0
24 4 27 33 27 21 0 36 7 45 20 7 11 16 20 20 20 4 0 13 -9 20 -20z m-170 -142
c16 -16 15 -28 -2 -28 -8 0 -44 -13 -81 -30 -74 -33 -94 -37 -72 -15 8 8 25
30 37 50 19 31 26 35 64 35 23 0 47 -5 54 -12z m431 -43 c48 -64 51 -73 14
-47 -16 10 -58 31 -95 46 -54 23 -64 31 -55 42 7 7 31 13 53 14 39 0 44 -4 83
-55z m-436 -66 c-28 -29 -29 -29 -88 -18 -33 7 -66 12 -72 12 -7 0 -13 5 -13
10 0 5 7 6 16 3 15 -6 93 18 150 45 27 13 29 13 32 -5 2 -11 -8 -31 -25 -47z
m359 35 c35 -14 72 -29 83 -33 14 -6 2 -11 -44 -20 l-63 -12 -29 30 c-28 30
-38 61 -20 61 5 0 38 -12 73 -26z m-222 -106 c-1 -41 -4 -45 -58 -83 -61 -43
-78 -53 -69 -39 3 5 0 40 -7 76 l-13 67 32 31 c17 16 39 30 48 30 19 0 22 -11
8 -25 -16 -18 -60 -154 -51 -160 12 -8 73 124 74 161 l0 32 18 -23 c11 -15 18
-39 18 -67z m149 53 c31 -29 31 -29 19 -85 -12 -62 -19 -62 -38 -1 -7 22 -21
57 -32 78 -18 36 -18 37 1 37 10 0 33 -13 50 -29z m-53 -73 c18 -45 32 -83 31
-84 -1 -1 -23 13 -50 33 -40 30 -47 40 -47 69 0 32 19 78 28 69 3 -2 19 -41
38 -87z"/>
</g>
</svg>
