<?xml version="1.0" standalone="no"?>
<!DOCTYPE svg PUBLIC "-//W3C//DTD SVG 20010904//EN"
 "http://www.w3.org/TR/2001/REC-SVG-20010904/DTD/svg10.dtd">
<svg version="1.0" xmlns="http://www.w3.org/2000/svg"
 width="100.000000pt" height="96.000000pt" viewBox="0 0 100.000000 96.000000"
 preserveAspectRatio="xMidYMid meet">
<g transform="translate(0.000000,96.000000) scale(0.100000,-0.100000)"
fill="#926F34" stroke="none">
<path d="M433 818 l-53 -29 0 -55 0 -54 -41 25 c-46 30 -47 30 -116 -10 l-52
-30 0 -66 0 -65 45 -24 c24 -14 44 -27 44 -30 0 -3 -20 -16 -45 -28 l-46 -22
3 -67 3 -67 57 -33 58 -34 45 27 45 26 0 -55 c0 -54 0 -54 41 -73 23 -10 48
-24 55 -32 11 -11 24 -8 74 20 l60 33 0 53 c0 28 2 52 5 52 3 0 23 -11 44 -25
l38 -26 60 35 60 35 2 64 2 65 -47 27 -47 28 47 26 46 26 0 65 0 66 -56 32
c-31 18 -60 32 -65 32 -6 0 -27 -11 -47 -25 l-37 -25 -3 53 c-3 53 -3 53 -58
85 -31 18 -59 31 -62 31 -4 -1 -31 -15 -59 -31z m110 -23 c36 -18 37 -20 37
-75 l0 -57 -44 -23 -43 -24 -44 26 -44 26 3 53 c4 52 6 55 45 76 23 12 44 21
47 20 3 -2 22 -11 43 -22z m-208 -117 c44 -23 44 -24 45 -74 0 -49 -2 -52 -42
-79 l-41 -27 -48 23 -49 24 0 51 c0 50 1 53 43 78 23 14 43 25 45 26 1 0 22
-10 47 -22z m415 -4 c37 -25 40 -30 40 -75 0 -46 -2 -49 -44 -74 l-44 -26 -46
23 -45 23 -1 58 c0 39 4 57 13 57 6 0 23 9 37 20 33 26 43 25 90 -6z m-255
-84 c7 0 28 11 48 24 19 13 37 22 40 20 2 -2 2 -26 -1 -52 l-4 -48 46 -25 c25
-13 46 -26 46 -29 0 -3 -20 -15 -43 -26 -39 -20 -42 -25 -44 -65 -1 -24 -2
-50 -2 -58 -1 -11 -7 -9 -23 6 -46 41 -64 45 -102 22 -20 -12 -36 -26 -36 -32
0 -6 -3 -7 -7 -4 -3 4 -6 30 -7 59 -1 52 -2 53 -43 73 -23 11 -42 23 -43 27 0
3 21 16 46 29 l46 22 -4 48 c-3 27 -3 51 -1 53 3 2 21 -7 40 -20 20 -13 41
-24 48 -24z m-160 -147 c44 -27 45 -29 45 -79 0 -51 -1 -53 -44 -78 l-45 -26
-45 27 c-44 27 -45 29 -45 78 0 48 1 51 42 77 23 14 43 27 44 27 1 1 23 -11
48 -26z m455 -78 c-1 -48 -2 -51 -46 -77 -47 -29 -64 -34 -64 -20 0 5 -16 16
-35 25 -34 16 -35 19 -35 69 1 51 2 54 43 79 l42 26 47 -26 c47 -26 48 -27 48
-76z m-253 -37 c49 -29 49 -28 45 -85 -3 -46 -7 -51 -45 -74 l-42 -25 -42 24
c-43 24 -43 24 -43 80 1 57 1 57 43 79 23 12 43 22 44 22 1 1 19 -9 40 -21z"/>
</g>
</svg>
