<?xml version="1.0" standalone="no"?>
<!DOCTYPE svg PUBLIC "-//W3C//DTD SVG 20010904//EN"
 "http://www.w3.org/TR/2001/REC-SVG-20010904/DTD/svg10.dtd">
<svg version="1.0" xmlns="http://www.w3.org/2000/svg"
 width="111.000000pt" height="102.000000pt" viewBox="0 0 111.000000 102.000000"
 preserveAspectRatio="xMidYMid meet">
<g transform="translate(0.000000,102.000000) scale(0.100000,-0.100000)"
fill="#926F34" stroke="none">
<path d="M368 767 l-158 -92 0 -185 1 -185 105 -60 c58 -33 131 -75 161 -92
l55 -33 117 66 c64 37 135 78 158 93 l43 26 0 187 0 186 -92 53 c-51 28 -121
69 -155 90 -34 22 -66 39 -70 38 -5 0 -79 -42 -165 -92z m185 51 c12 -7 23
-14 25 -14 5 -3 -40 -74 -46 -74 -4 1 -17 16 -29 35 l-21 34 21 15 c27 19 23
18 50 4z m142 -83 c28 -16 52 -30 55 -32 2 -2 -7 -24 -20 -48 -25 -45 -25 -45
-80 -45 -55 0 -56 0 -79 43 l-23 42 27 48 c26 45 28 47 49 34 11 -7 44 -26 71
-42z m-200 -1 l24 -40 -25 -42 c-25 -41 -26 -42 -79 -42 -53 0 -54 1 -79 42
-15 25 -22 46 -16 52 18 18 126 76 138 73 7 -1 23 -20 37 -43z m-182 -89 c9
-20 17 -37 17 -38 0 -1 -20 -1 -45 1 -42 4 -45 6 -45 32 0 51 50 54 73 5z
m497 25 c12 -7 18 -19 17 -37 -2 -25 -6 -28 -45 -28 -47 0 -48 2 -24 45 19 33
24 35 52 20z m-249 -50 c22 -39 24 -40 76 -40 l53 0 -25 -40 c-31 -49 -31 -52
0 -98 l25 -37 -53 -3 c-51 -3 -55 -5 -76 -42 -12 -22 -26 -40 -30 -40 -4 0
-16 18 -26 40 -18 39 -19 40 -72 40 -29 0 -53 2 -53 5 0 3 12 24 27 46 l26 40
-31 44 -32 45 59 0 58 0 18 40 c10 22 22 40 26 40 4 0 18 -18 30 -40z m-188
-85 l26 -45 -26 -45 c-25 -45 -25 -45 -79 -45 l-54 0 0 90 0 90 54 0 c54 0 54
0 79 -45z m452 -45 l0 -90 -52 0 c-51 0 -54 2 -78 40 -14 22 -25 43 -25 46 0
4 11 27 25 51 25 42 27 43 78 43 l52 0 0 -90z m-495 -116 c0 -12 -36 -74 -43
-74 -25 0 -47 23 -47 49 0 26 2 28 45 28 25 0 45 -2 45 -3z m163 -49 l23 -40
-25 -42 c-14 -24 -29 -43 -32 -43 -4 0 -38 18 -77 41 l-71 41 15 30 c28 54 46
65 98 59 42 -5 49 -10 69 -46z m239 0 l26 -43 -79 -45 -79 -45 -25 45 c-14 25
-25 48 -25 50 0 2 11 23 24 46 25 42 25 42 78 39 50 -4 54 -6 80 -47z m96 25
c4 -23 -19 -50 -42 -50 -9 0 -56 62 -56 74 0 2 21 3 48 2 41 -2 47 -5 50 -26z
m-271 -181 c-16 -13 -26 -15 -44 -6 -28 13 -28 17 -2 62 l22 36 22 -38 22 -38
-20 -16z"/>
</g>
</svg>
