<?xml version="1.0" standalone="no"?>
<!DOCTYPE svg PUBLIC "-//W3C//DTD SVG 20010904//EN"
 "http://www.w3.org/TR/2001/REC-SVG-20010904/DTD/svg10.dtd">
<svg version="1.0" xmlns="http://www.w3.org/2000/svg"
 width="95.000000pt" height="97.000000pt" viewBox="0 0 95.000000 97.000000"
 preserveAspectRatio="xMidYMid meet">
<g transform="translate(0.000000,97.000000) scale(0.100000,-0.100000)"
fill="#926F34" stroke="none">
<path d="M400 834 l-54 -56 -73 4 -73 3 0 -75 0 -74 -57 -58 -57 -57 58 -54
58 -53 -4 -77 -3 -77 81 0 81 0 51 -54 50 -53 53 53 53 54 78 0 78 0 0 77 0
77 55 56 56 56 -56 53 -55 52 0 77 0 77 -74 -3 -73 -3 -53 55 c-29 31 -56 56
-59 56 -4 0 -31 -25 -61 -56z m105 -27 l44 -43 -45 -43 -45 -43 -44 43 -45 43
42 43 c23 24 44 43 45 43 2 0 23 -19 48 -43z m-114 -101 l51 -46 -60 -59 -60
-59 -45 46 c-42 43 -45 52 -49 107 l-4 61 57 -2 c54 -1 61 -4 110 -48z m300
-11 c-2 -57 -5 -63 -49 -108 l-47 -47 -59 59 -58 59 50 49 c49 46 54 48 108
48 l58 0 -3 -60z m-172 -116 l55 -60 -54 -54 c-30 -31 -58 -54 -61 -53 -4 2
-32 26 -62 55 l-55 52 56 60 c32 33 59 59 62 59 3 0 29 -27 59 -59z m-256 -14
l39 -44 -42 -41 c-22 -22 -43 -40 -45 -40 -2 0 -22 19 -44 43 l-40 42 42 43
c22 23 44 42 47 41 3 0 22 -21 43 -44z m482 3 l44 -43 -42 -45 -42 -46 -46 44
-45 43 40 43 c23 24 42 44 44 45 2 0 23 -18 47 -41z m-360 -127 l57 -54 -48
-48 c-47 -47 -50 -49 -106 -49 l-58 0 0 57 c0 52 3 59 43 103 23 26 45 47 49
46 3 0 32 -25 63 -55z m257 12 c46 -46 48 -49 48 -105 l0 -58 -58 0 c-56 0
-59 2 -105 48 l-48 48 53 56 c29 30 55 56 58 57 2 0 26 -20 52 -46z m-140
-130 c21 -20 38 -40 38 -43 0 -4 -18 -25 -40 -47 l-39 -41 -45 44 -44 45 42
39 c22 22 43 40 46 40 2 0 21 -17 42 -37z"/>
</g>
</svg>
