<?xml version="1.0" standalone="no"?>
<!DOCTYPE svg PUBLIC "-//W3C//DTD SVG 20010904//EN"
 "http://www.w3.org/TR/2001/REC-SVG-20010904/DTD/svg10.dtd">
<svg version="1.0" xmlns="http://www.w3.org/2000/svg"
 width="107.000000pt" height="85.000000pt" viewBox="0 0 107.000000 85.000000"
 preserveAspectRatio="xMidYMid meet">
<g transform="translate(0.000000,85.000000) scale(0.100000,-0.100000)"
fill="#926F34" stroke="none">
<path d="M267 713 l-107 -107 0 -155 0 -155 107 -108 108 -108 154 0 154 0
108 109 109 108 0 154 0 154 -108 108 -107 107 -155 0 -155 0 -108 -107z m186
43 c-3 -26 1 -41 18 -60 12 -14 29 -26 38 -26 10 0 5 -9 -15 -29 -20 -20 -42
-30 -71 -32 -36 -4 -40 -2 -32 13 17 31 9 64 -21 93 l-30 29 21 22 c19 20 71
35 90 27 4 -2 5 -18 2 -37z m245 11 l23 -21 -31 -27 c-24 -22 -30 -34 -30 -68
0 -40 -1 -41 -33 -41 -23 0 -41 8 -58 26 l-24 26 28 23 c21 19 27 33 27 63 0
21 2 41 5 44 11 11 71 -6 93 -25z m-118 -7 c0 -21 -9 -39 -26 -55 l-27 -25
-23 23 c-15 14 -24 34 -24 55 0 32 0 32 50 32 49 0 50 -1 50 -30z m-232 -59
c15 -14 22 -30 22 -55 0 -34 -2 -36 -31 -36 -18 0 -43 10 -59 24 l-28 23 31
32 c37 36 35 36 65 12z m427 -11 l29 -30 -24 -25 c-16 -17 -34 -25 -57 -25
-31 0 -33 2 -33 36 0 25 7 41 23 55 29 24 28 24 62 -11z m-445 -102 c39 3 40
2 40 -29 0 -18 -10 -43 -24 -59 l-24 -29 -28 30 c-21 22 -37 29 -66 29 -36 0
-38 2 -38 32 0 19 9 41 22 55 l22 23 28 -27 c22 -21 36 -26 68 -25z m226 25
c19 -22 32 -27 66 -28 l43 0 -3 -38 c-3 -33 1 -43 28 -67 l33 -29 -33 -27
c-27 -24 -31 -33 -28 -66 l4 -38 -40 0 c-30 0 -47 -7 -68 -27 l-28 -27 -28 27
c-21 20 -38 27 -68 27 l-40 0 3 40 c2 33 -3 43 -30 66 l-32 27 33 27 c29 24
33 33 30 66 l-3 39 41 3 c28 2 49 11 64 28 13 13 26 24 28 24 3 0 15 -12 28
-27z m314 -50 c0 -32 -2 -33 -38 -33 -29 0 -45 -7 -67 -30 l-28 -29 -23 22
c-17 15 -24 33 -24 60 l0 37 38 -5 c33 -4 43 0 67 25 l29 30 23 -22 c15 -14
23 -33 23 -55z m-590 -88 l24 -26 -29 -24 c-17 -13 -42 -24 -57 -25 -24 0 -26
3 -30 50 l-3 50 36 0 c25 0 42 -7 59 -25z m592 -25 c-4 -49 -5 -50 -35 -50
-21 0 -40 9 -56 26 l-24 25 23 24 c17 18 34 25 59 25 l36 0 -3 -50z m-525 -42
c15 -14 23 -33 23 -55 0 -32 -2 -33 -38 -33 -29 0 -46 -7 -68 -29 l-29 -30
-23 21 c-15 15 -22 33 -22 60 l0 39 42 -3 c35 -2 45 2 62 25 24 33 24 33 53 5z
m424 -5 c22 -22 36 -27 66 -25 l39 3 -4 -40 c-3 -24 -13 -47 -27 -61 l-22 -21
-26 30 c-21 25 -33 31 -66 31 -39 0 -41 1 -41 32 0 27 31 78 48 78 2 0 17 -12
33 -27z m-401 -146 c0 -23 -8 -41 -25 -57 l-25 -24 -35 34 -35 34 27 23 c16
13 42 22 61 23 30 0 32 -2 32 -33z m118 10 l22 -23 -31 -30 c-26 -25 -30 -34
-26 -66 l5 -38 -37 0 c-26 0 -44 7 -59 23 l-22 23 30 29 c24 23 29 34 26 67
-4 38 -4 38 33 38 26 0 44 -7 59 -23z m174 -17 c-3 -28 3 -41 27 -64 l31 -30
-22 -23 c-15 -16 -33 -23 -60 -23 l-38 0 0 44 c0 36 -5 48 -27 65 l-26 21 24
26 c18 19 31 24 59 22 34 -3 35 -4 32 -38z m116 21 c29 -25 28 -31 -9 -64
l-32 -28 -23 22 c-16 15 -24 34 -24 56 0 31 2 33 33 33 17 -1 42 -9 55 -19z
m-221 -73 c15 -14 23 -33 23 -55 0 -33 0 -33 -50 -33 -50 0 -50 0 -50 32 0 19
9 41 22 55 26 28 26 28 55 1z"/>
</g>
</svg>
