<?xml version="1.0" standalone="no"?>
<!DOCTYPE svg PUBLIC "-//W3C//DTD SVG 20010904//EN"
 "http://www.w3.org/TR/2001/REC-SVG-20010904/DTD/svg10.dtd">
<svg version="1.0" xmlns="http://www.w3.org/2000/svg"
 width="600.000000pt" height="327.000000pt" viewBox="0 0 600.000000 327.000000"
 preserveAspectRatio="xMidYMid meet">
<g transform="translate(0.000000,327.000000) scale(0.100000,-0.100000)"
fill="#926F34" stroke="none">
<path d="M2759 3034 l-236 -236 -342 1 -341 1 0 -346 0 -346 -241 -237 -241
-236 241 -239 241 -240 0 -343 0 -344 342 1 341 2 239 -239 238 -238 238 238
238 238 342 -1 342 0 0 343 0 343 240 239 241 240 -241 237 -240 238 0 345 0
346 -341 -2 -342 -1 -236 236 c-130 130 -238 236 -241 236 -3 0 -111 -106
-241 -236z m339 112 c50 -51 92 -97 92 -101 0 -5 -38 29 -85 76 -48 47 -94 84
-105 84 -12 0 -105 -85 -243 -222 l-224 -223 -78 0 c-96 0 -96 8 0 11 l70 2
119 116 c66 64 171 169 235 233 64 65 118 118 121 118 3 0 47 -42 98 -94z
m132 -181 l225 -225 323 -2 323 -3 -1 -325 -1 -324 226 -226 226 -226 -226
-224 -225 -225 2 -328 3 -327 -325 0 -325 0 -227 -227 -228 -228 -228 228
-227 227 -323 0 -322 0 0 328 0 327 -228 225 -227 225 228 225 227 224 0 328
0 328 323 0 322 0 225 225 c124 124 227 225 230 225 3 0 106 -101 230 -225z
m24 16 c-5 -6 -54 40 -54 51 0 4 13 -5 29 -20 16 -15 28 -29 25 -31z m93 -83
c41 -40 79 -82 85 -93 6 -11 -30 20 -81 70 -50 49 -91 91 -91 92 0 11 22 -7
87 -69z m203 -131 l75 -3 -84 0 c-66 1 -85 4 -89 16 -4 12 -2 13 9 3 8 -7 48
-14 89 -16z m-1446 2 c3 -3 -14 -6 -37 -6 -33 -1 -37 0 -17 6 27 8 46 8 54 0z
m1891 -3 c11 -2 -34 -3 -100 -3 -81 0 -102 2 -65 6 52 6 119 4 165 -3z m-2050
-3 c-48 -5 -76 -28 -71 -58 2 -12 0 -28 -5 -36 -6 -9 -9 6 -9 44 l0 57 63 -2
c46 -1 52 -2 22 -5z m378 0 c-29 -2 -78 -2 -110 0 -32 2 -8 3 52 3 61 0 87 -1
58 -3z m1410 0 c-7 -2 -19 -2 -25 0 -7 3 -2 5 12 5 14 0 19 -2 13 -5z m405
-32 c-1 -22 -6 -37 -11 -34 -4 3 -6 11 -3 18 7 21 -25 43 -69 48 -30 3 -24 4
23 5 l63 2 -3 -39z m-1 -103 c-3 -7 -5 -2 -5 12 0 14 2 19 5 13 2 -7 2 -19 0
-25z m-2263 -18 c1 -17 -1 -33 -6 -36 -4 -3 -8 14 -8 37 0 48 11 47 14 -1z
m-4 -100 l-8 -35 -1 45 c-1 27 3 40 8 35 6 -6 6 -25 1 -45z m2269 -42 c-1 -44
-3 -48 -8 -23 -4 17 -6 37 -5 45 1 8 3 18 3 23 1 4 3 7 6 7 3 0 4 -24 4 -52z
m-2272 -45 c-3 -10 -5 -4 -5 12 0 17 2 24 5 18 2 -7 2 -21 0 -30z m5 -127 c0
-47 -2 -89 -5 -93 -4 -3 -7 38 -7 92 0 54 2 96 5 93 3 -3 6 -44 7 -92z m2265
47 c-3 -10 -5 -2 -5 17 0 19 2 27 5 18 2 -10 2 -26 0 -35z m0 -90 c-3 -10 -5
-4 -5 12 0 17 2 24 5 18 2 -7 2 -21 0 -30z m0 -95 c-2 -13 -4 -5 -4 17 -1 22
1 32 4 23 2 -10 2 -28 0 -40z m-2270 -5 c-3 -10 -5 -4 -5 12 0 17 2 24 5 18 2
-7 2 -21 0 -30z m3 -51 c0 -10 -19 -34 -42 -52 l-43 -34 38 42 c20 23 37 47
37 52 0 6 2 10 5 10 3 0 5 -8 5 -18z m2507 -239 c123 -122 223 -223 223 -226
0 -6 -251 -257 -257 -257 -8 0 52 64 152 164 50 50 84 91 77 94 -6 2 -12 9
-12 15 0 7 -56 67 -125 135 -69 68 -125 128 -125 133 0 5 -4 9 -9 9 -17 0
-171 160 -171 177 1 16 2 16 12 -2 6 -11 112 -120 235 -242z m-2732 2 c-76
-74 -140 -134 -142 -131 -2 2 58 65 134 139 76 75 139 134 141 132 2 -2 -58
-65 -133 -140z m-185 -181 c-35 -32 -38 -39 -28 -57 6 -12 108 -118 226 -235
117 -118 212 -215 210 -218 -8 -8 -458 448 -458 463 0 17 65 83 81 83 5 0 -9
-16 -31 -36z m2853 -339 c-10 -13 -21 -25 -24 -25 -4 0 -41 -38 -83 -85 -42
-47 -76 -79 -76 -71 0 8 14 26 30 39 17 14 30 28 30 31 0 6 131 136 137 136 2
0 -4 -11 -14 -25z m-2438 -194 c3 -5 2 -12 -3 -15 -5 -3 -9 1 -9 9 0 17 3 19
12 6z m5 -40 c0 -6 -4 -13 -10 -16 -5 -3 -10 1 -10 9 0 9 5 16 10 16 6 0 10
-4 10 -9z m2258 -93 l-2 -93 -5 80 c-6 75 -4 105 5 105 2 0 3 -42 2 -92z
m-2271 40 c-3 -8 -6 -5 -6 6 -1 11 2 17 5 13 3 -3 4 -12 1 -19z m3 -68 l-8
-35 -1 45 c-1 27 3 40 8 35 6 -6 6 -25 1 -45z m-3 -112 c-2 -13 -4 -5 -4 17
-1 22 1 32 4 23 2 -10 2 -28 0 -40z m2270 -20 c-3 -7 -5 -2 -5 12 0 14 2 19 5
13 2 -7 2 -19 0 -25z m-2264 -117 c1 -56 -1 -101 -5 -101 -5 0 -8 48 -8 107 0
58 3 104 6 100 3 -3 6 -51 7 -106z m2267 43 c0 -8 -5 -12 -10 -9 -6 4 -8 11
-5 16 9 14 15 11 15 -7z m-3 -121 c-2 -16 -4 -3 -4 27 0 30 2 43 4 28 2 -16 2
-40 0 -55z m0 -70 c-3 -10 -5 -4 -5 12 0 17 2 24 5 18 2 -7 2 -21 0 -30z m3
-62 c0 -34 -14 -39 -85 -30 l-50 6 47 1 c39 2 51 7 64 27 21 32 24 31 24 -4z
m-2223 -21 c25 -7 24 -8 -14 -8 -36 0 -43 3 -43 20 0 17 3 18 14 9 8 -7 27
-16 43 -21z m106 -7 c-7 -2 -19 -2 -25 0 -7 3 -2 5 12 5 14 0 19 -2 13 -5z
m127 3 c0 -8 -51 -13 -56 -5 -3 5 9 9 25 9 17 0 31 -2 31 -4z m60 0 c0 -9 -40
-13 -46 -5 -3 5 6 9 20 9 14 0 26 -2 26 -4z m83 -3 c-13 -2 -35 -2 -50 0 -16
2 -5 4 22 4 28 0 40 -2 28 -4z m64 1 c-3 -3 -12 -4 -19 -1 -8 3 -5 6 6 6 11 1
17 -2 13 -5z m168 -3 c3 -6 -10 -7 -32 -4 -50 8 -55 13 -10 13 20 0 38 -4 42
-9z m1005 0 c0 -6 -10 -8 -21 -6 -33 6 -36 15 -6 15 15 0 27 -4 27 -9z m63 2
c-7 -2 -19 -2 -25 0 -7 3 -2 5 12 5 14 0 19 -2 13 -5z m90 0 c-7 -2 -21 -2
-30 0 -10 3 -4 5 12 5 17 0 24 -2 18 -5z m140 0 c-18 -2 -48 -2 -65 0 -18 2
-4 4 32 4 36 0 50 -2 33 -4z m120 0 c-13 -2 -33 -2 -45 0 -13 2 -3 4 22 4 25
0 35 -2 23 -4z m54 1 c-3 -3 -12 -4 -19 -1 -8 3 -5 6 6 6 11 1 17 -2 13 -5z
m-1269 -186 c96 -95 194 -192 216 -215 23 -24 48 -43 55 -43 8 0 68 53 133
118 65 64 124 119 131 121 7 2 -50 -58 -126 -133 l-137 -137 -232 231 c-128
126 -229 230 -224 230 4 0 87 -78 184 -172z m705 142 c-28 -31 -39 -39 -27
-17 13 22 37 47 46 47 4 0 -4 -13 -19 -30z m-96 -96 c-77 -73 -86 -69 -12 6
32 33 61 57 64 54 3 -3 -20 -30 -52 -60z"/>
<path d="M2811 2738 l-185 -199 -205 5 c-113 4 -237 9 -275 12 l-68 5 6 -228
c4 -125 9 -249 12 -276 l6 -47 -192 -188 -193 -187 191 -185 191 -185 -9 -210
c-5 -116 -10 -241 -10 -279 l0 -68 118 6 c64 3 187 9 272 12 l155 6 185 -205
c102 -113 187 -205 190 -205 3 -1 28 25 55 57 28 31 111 124 185 205 l135 148
155 -6 c85 -3 209 -9 275 -12 l120 -6 -6 153 c-4 85 -8 211 -10 280 l-3 126
188 184 189 184 -190 185 -189 185 7 195 c4 107 8 232 8 278 l1 83 -77 -5
c-43 -3 -166 -8 -274 -11 l-195 -6 -185 199 c-101 110 -186 200 -189 200 -3 0
-88 -90 -189 -200z m284 66 c50 -53 94 -103 98 -113 5 -9 -33 28 -83 82 -51
53 -100 97 -110 97 -10 0 -32 -14 -49 -32 -17 -17 -31 -28 -31 -23 0 10 71 85
80 85 3 0 46 -43 95 -96z m73 -128 c89 -96 157 -178 152 -181 -5 -3 -78 -79
-162 -168 -83 -89 -154 -162 -158 -162 -8 0 -320 332 -320 340 0 8 313 345
320 345 3 0 78 -79 168 -174z m-258 126 c0 -5 -14 -24 -31 -43 -37 -40 -36
-26 1 20 27 33 30 36 30 23z m-106 -126 c-22 -24 -43 -45 -48 -45 -5 -1 0 9
11 22 11 12 29 32 39 45 10 12 23 22 28 22 5 0 -9 -20 -30 -44z m585 -157 c14
-1 34 -2 43 -2 10 0 15 -4 12 -8 -3 -5 -18 -9 -34 -9 -41 0 -50 -23 -50 -129
0 -50 -3 -91 -7 -91 -5 0 -7 31 -6 69 3 86 -13 107 -52 71 -37 -35 -30 -13 10
31 19 22 35 43 35 48 0 19 -27 59 -65 97 -22 21 -47 48 -54 59 -8 11 21 -15
64 -57 54 -54 86 -78 104 -79z m-660 78 c-15 -12 -36 -37 -49 -55 -27 -41 -23
-53 43 -122 27 -27 45 -50 40 -50 -5 0 -22 14 -38 30 -31 32 -53 38 -73 18 -9
-9 -12 -7 -12 13 0 13 -7 37 -15 52 -13 25 -13 29 3 34 9 4 37 28 61 55 25 26
50 48 55 48 6 0 -1 -10 -15 -23z m-552 -77 c-27 -3 -52 -12 -56 -19 -10 -16
-23 1 -16 21 4 9 21 12 63 9 l57 -5 -48 -6z m218 1 c33 -7 26 -8 -45 -9 -47
-1 -91 2 -98 7 -18 11 91 12 143 2z m1360 -1 c-4 -6 -47 -9 -108 -9 -110 2
-84 12 41 17 49 2 72 -1 67 -8z m145 -64 c0 -41 -4 -77 -8 -80 -5 -3 -8 21 -6
52 2 74 -9 90 -72 95 -43 3 -41 4 19 5 l67 2 0 -74z m-1325 55 c13 -6 -1 -8
-38 -6 -31 1 -60 5 -64 8 -9 10 78 7 102 -2z m962 3 c-9 -9 -67 -12 -72 -4 -3
5 13 8 35 8 23 0 39 -2 37 -4z m-1076 -30 l156 -6 6 -236 c4 -129 6 -236 4
-237 -3 -1 -472 17 -473 19 -1 0 -5 108 -9 238 l-7 237 83 -4 c46 -3 154 -8
240 -11z m1396 -156 c-4 -95 -7 -203 -7 -239 l0 -67 -212 -6 c-117 -4 -226
-10 -242 -13 l-29 -5 7 123 c3 68 7 177 8 242 l1 117 56 1 c76 2 381 15 405
17 18 2 19 -5 13 -170z m-1740 70 c-3 -8 -6 -5 -6 6 -1 11 2 17 5 13 3 -3 4
-12 1 -19z m766 -200 l87 -95 0 -200 0 -200 -140 142 -140 141 -5 139 c-3 77
-7 176 -10 220 l-4 80 62 -66 c34 -37 101 -109 150 -161z m437 3 l-9 -214
-140 -142 c-136 -136 -161 -167 -123 -146 25 13 272 264 286 290 12 21 13 21
29 4 15 -17 14 -19 -12 -31 -28 -12 -183 -160 -258 -246 -43 -48 -43 -49 -23
-66 17 -15 18 -19 5 -24 -8 -3 -15 -12 -15 -21 0 -8 -11 -20 -25 -25 -18 -7
-25 -17 -25 -37 l0 -28 -19 32 c-15 24 -25 30 -40 26 -12 -3 -21 -10 -21 -16
0 -6 -3 -8 -6 -5 -3 3 1 15 8 27 10 17 10 25 1 41 -8 12 -9 21 -3 25 22 13 8
45 -40 91 -27 26 -47 50 -44 53 3 3 27 -18 53 -47 60 -65 89 -67 104 -7 3 15
5 13 6 -8 0 -16 5 -26 11 -22 6 4 10 83 10 203 l1 197 146 158 c80 86 147 156
149 155 1 -2 -2 -99 -6 -217z m-60 191 c0 -7 -52 -65 -168 -187 -32 -33 -66
-73 -76 -89 l-18 -28 -13 25 c-14 27 -83 103 -153 171 -24 22 -48 50 -54 61
-6 11 40 -31 101 -92 61 -62 117 -113 123 -113 10 0 158 149 225 227 30 35 33
37 33 25z m-1143 -109 c-2 -21 -4 -6 -4 32 0 39 2 55 4 38 2 -18 2 -50 0 -70z
m530 65 c-3 -7 -5 -2 -5 12 0 14 2 19 5 13 2 -7 2 -19 0 -25z m712 -115 c0
-21 -4 -47 -9 -58 -6 -14 -8 -2 -7 37 1 32 5 58 10 58 4 0 7 -17 6 -37z
m-1242 -25 c-3 -8 -6 -5 -6 6 -1 11 2 17 5 13 3 -3 4 -12 1 -19z m13 -117 c0
-77 9 -91 60 -92 19 0 44 -4 55 -9 18 -8 17 -9 -8 -9 -69 -2 -48 -27 256 -317
26 -24 30 -33 20 -42 -19 -18 -32 -14 -26 7 5 20 6 19 -235 248 -59 57 -105
93 -118 93 -12 0 -33 -12 -48 -26 -36 -37 -33 -19 5 23 30 35 31 37 26 119 -3
48 -1 82 4 78 5 -3 9 -36 9 -73z m1217 22 c-3 -10 -5 -4 -5 12 0 17 2 24 5 18
2 -7 2 -21 0 -30z m0 -85 c-3 -7 -5 -2 -5 12 0 14 2 19 5 13 2 -7 2 -19 0 -25z
m638 -137 c113 -115 135 -140 50 -59 -98 93 -139 129 -157 139 -18 10 -38 -5
-144 -106 -69 -66 -107 -99 -94 -81 8 11 49 52 90 92 68 66 74 75 63 93 -15
25 -17 34 -3 26 5 -3 25 1 45 9 25 11 35 22 36 38 1 14 4 8 9 -15 6 -30 27
-58 105 -136z m-978 127 c-3 -7 -5 -2 -5 12 0 14 2 19 5 13 2 -7 2 -19 0 -25z
m-554 -29 c54 -2 97 -6 97 -9 0 -4 -13 -6 -30 -5 -16 1 -69 2 -117 3 -58 2
-83 5 -73 11 8 6 17 8 21 6 3 -3 49 -5 102 -6z m217 -2 c0 -7 38 -51 84 -97
47 -47 83 -87 80 -89 -2 -3 -44 35 -93 82 -69 68 -95 87 -117 87 l-29 0 25 14
c32 18 50 19 50 3z m337 -19 c-3 -7 -5 -2 -5 12 0 14 2 19 5 13 2 -7 2 -19 0
-25z m753 16 c0 -2 -48 -3 -107 -2 l-108 2 80 5 c76 6 135 3 135 -5z m-1463 0
c-3 -3 -12 -4 -19 -1 -8 3 -5 6 6 6 11 1 17 -2 13 -5z m1241 1 c-9 -9 -68 -14
-68 -6 0 5 16 9 36 9 19 0 34 -2 32 -3z m-1095 -31 l205 -7 143 -143 144 -144
-201 0 -200 0 -135 126 c-168 158 -198 188 -178 181 9 -3 109 -9 222 -13z
m1317 -17 c-19 -19 -92 -89 -162 -155 l-126 -122 -203 0 -204 0 145 145 145
145 100 1 c87 1 302 12 330 17 5 1 -6 -13 -25 -31z m-1454 -142 l169 -160
-170 -161 -170 -161 -169 161 -168 161 163 161 c90 88 167 160 170 160 4 -1
82 -73 175 -161z m1778 -46 l118 -114 -167 -162 -168 -162 -171 162 -171 162
170 162 170 161 50 -47 c28 -27 103 -99 169 -162z m-1077 154 c-3 -10 -5 -4
-5 12 0 17 2 24 5 18 2 -7 2 -21 0 -30z m-997 -28 c-24 -25 -49 -45 -54 -45
-5 0 13 20 40 45 27 25 51 45 53 45 3 0 -15 -20 -39 -45z m997 -67 c-3 -7 -5
-2 -5 12 0 14 2 19 5 13 2 -7 2 -19 0 -25z m-1138 -75 c-96 -100 -94 -96 -63
-132 34 -41 22 -40 -22 2 l-35 32 87 83 c48 45 90 82 93 82 3 0 -24 -30 -60
-67z m2326 -151 c-31 -30 -58 -52 -61 -50 -2 3 16 24 41 47 25 23 45 48 45 55
0 8 -27 40 -60 72 -33 32 -60 62 -60 67 0 5 34 -24 75 -64 l75 -73 -55 -54z
m-575 174 c0 -3 -4 -8 -10 -11 -5 -3 -10 -1 -10 4 0 6 5 11 10 11 6 0 10 -2
10 -4z m-69 -65 c-63 -63 -77 -40 168 -271 67 -63 127 -117 133 -121 13 -8 48
0 48 12 0 4 10 14 23 20 19 10 18 8 -6 -17 -16 -15 -31 -41 -34 -56 -5 -27 -6
-28 -19 -10 -9 13 -32 22 -66 27 -43 6 -48 9 -28 14 39 11 34 32 -17 82 -76
74 -205 195 -245 230 l-37 33 57 52 c67 61 82 64 23 5z m-898 -58 c-13 -2 -33
-2 -45 0 -13 2 -3 4 22 4 25 0 35 -2 23 -4z m85 0 c-10 -2 -26 -2 -35 0 -10 3
-2 5 17 5 19 0 27 -2 18 -5z m125 0 c-13 -2 -35 -2 -50 0 -16 2 -5 4 22 4 28
0 40 -2 28 -4z m274 1 c-3 -3 -12 -4 -19 -1 -8 3 -5 6 6 6 11 1 17 -2 13 -5z
m131 -1 c-16 -2 -40 -2 -55 0 -16 2 -3 4 27 4 30 0 43 -2 28 -4z m160 0 c-21
-2 -57 -2 -80 0 -24 2 -7 4 37 4 44 0 63 -2 43 -4z m-638 -168 l-145 -145
-105 -1 c-58 -1 -152 -4 -210 -8 -93 -5 -105 -8 -102 -23 2 -15 -5 -18 -36
-18 -43 0 -58 -11 -65 -50 -3 -20 -5 -18 -6 10 -2 45 -5 50 -93 137 -39 40
-70 73 -67 73 3 0 33 -26 65 -58 33 -32 70 -65 83 -74 23 -16 25 -16 59 10 20
15 60 51 91 80 31 28 59 52 63 52 3 0 -14 -20 -40 -45 -25 -25 -49 -45 -52
-45 -4 0 -12 -11 -18 -25 -6 -14 -8 -25 -4 -25 4 0 78 68 165 150 l158 150
202 0 202 0 -145 -145z m796 33 c187 -178 210 -201 192 -195 -9 3 -108 9 -221
13 l-205 7 -143 143 -144 144 201 0 202 0 118 -112z m-1163 39 c-26 -25 -50
-43 -53 -41 -2 3 18 26 45 52 28 26 51 44 53 41 2 -4 -19 -27 -45 -52z m748
-65 c136 -139 177 -172 213 -172 l31 -1 -32 -14 -33 -14 -2 -123 -2 -123 -3
120 c-2 70 -8 130 -15 144 -7 13 -72 82 -145 154 -73 72 -129 135 -126 140 3
5 8 4 12 -2 4 -6 50 -55 102 -109z m-201 -105 l0 -203 -97 -104 c-169 -184
-195 -211 -198 -208 -1 2 1 99 6 217 l8 214 138 142 c76 78 139 143 141 144 1
0 2 -90 2 -202z m349 -298 c5 -118 8 -215 7 -216 -1 -1 -68 69 -149 155 l-147
157 0 187 c0 102 -3 195 -6 205 -4 10 60 -48 140 -128 l148 -146 7 -214z
m-1369 377 c0 -5 -25 16 -55 48 -30 31 -55 60 -55 63 0 4 25 -17 55 -47 30
-30 55 -59 55 -64z m845 -26 c-71 -70 -125 -132 -132 -152 -7 -18 -12 -26 -12
-17 -1 9 -8 22 -17 29 -13 12 -12 15 13 26 15 6 80 64 143 127 63 64 117 113
119 111 3 -3 -49 -58 -114 -124z m1268 35 c-37 -36 -69 -65 -72 -65 -3 0 24
29 59 65 35 36 68 65 72 65 4 0 -22 -29 -59 -65z m-1708 16 c-3 -6 -11 -11
-17 -11 -6 0 -6 6 2 15 14 17 26 13 15 -4z m652 -28 c-3 -10 -5 -4 -5 12 0 17
2 24 5 18 2 -7 2 -21 0 -30z m983 -68 c0 -2 -10 -10 -22 -16 -21 -11 -22 -11
-9 4 13 16 31 23 31 12z m-980 -41 c0 -8 -5 -12 -10 -9 -6 4 -8 11 -5 16 9 14
15 11 15 -7z m-435 -44 c-6 -10 -145 -12 -145 -3 0 4 34 8 75 9 40 0 72 -3 70
-6z m1031 -8 c-66 -1 -123 1 -127 5 -5 4 49 6 119 3 l127 -5 -119 -3z m-1309
2 c-3 -3 -12 -4 -19 -1 -8 3 -5 6 6 6 11 1 17 -2 13 -5z m91 -1 c-16 -2 -40
-2 -55 0 -16 2 -3 4 27 4 30 0 43 -2 28 -4z m239 -125 c-4 -62 -7 -170 -7
-239 l0 -127 -137 -6 c-76 -3 -185 -9 -241 -12 l-104 -5 7 238 c4 131 8 239 9
240 0 0 105 5 231 11 127 5 234 10 239 10 5 1 6 -45 3 -110z m1016 96 l207 -6
1 -107 c1 -58 4 -166 8 -239 l6 -133 -105 5 c-58 3 -167 9 -242 12 l-138 6 0
132 c0 73 -3 181 -6 239 l-7 106 34 -4 c19 -3 127 -7 242 -11z m-1516 -111
c-3 -10 -5 -2 -5 17 0 19 2 27 5 18 2 -10 2 -26 0 -35z m909 -18 c28 -30 32
-45 7 -23 -37 32 -51 29 -100 -21 -83 -83 -196 -204 -242 -259 -40 -47 -43
-54 -33 -78 18 -38 15 -40 -17 -10 -16 16 -34 25 -40 22 -19 -12 -12 6 10 25
11 9 19 19 18 21 -2 2 0 14 4 27 5 21 8 23 23 10 14 -12 27 -2 118 92 165 173
216 230 217 248 1 9 3 7 6 -6 2 -12 15 -33 29 -48z m-906 -35 c0 -16 -2 -30
-4 -30 -2 0 -6 14 -8 30 -3 17 -1 30 4 30 4 0 8 -13 8 -30z m1036 -155 l161
-170 -160 -175 c-87 -96 -163 -175 -167 -175 -4 0 -80 79 -167 174 l-159 175
86 90 c47 50 119 127 160 172 41 45 77 81 80 80 3 0 78 -78 166 -171z m54 -6
c25 -26 55 -59 68 -73 19 -23 25 -25 42 -14 16 11 20 25 22 78 1 61 2 60 9
-30 5 -52 9 -101 10 -107 2 -12 19 -17 47 -14 6 1 12 -3 12 -8 0 -5 -13 -9
-29 -9 -16 1 -43 -9 -60 -21 l-31 -22 17 29 c15 25 15 31 2 50 -18 25 -205
228 -236 256 -13 11 -23 26 -23 33 0 8 24 -12 53 -43 28 -32 72 -79 97 -105z
m667 99 c-2 -13 -4 -3 -4 22 0 25 2 35 4 23 2 -13 2 -33 0 -45z m-1770 -85
c-3 -10 -5 -4 -5 12 0 17 2 24 5 18 2 -7 2 -21 0 -30z m530 -45 c-3 -7 -5 -2
-5 12 0 14 2 19 5 13 2 -7 2 -19 0 -25z m-530 -60 c-2 -18 -4 -6 -4 27 0 33 2
48 4 33 2 -15 2 -42 0 -60z m1783 62 c0 -5 -5 -10 -11 -10 -5 0 -7 5 -4 10 3
6 8 10 11 10 2 0 4 -4 4 -10z m-1 -95 c1 -81 -1 -84 -59 -65 l-25 8 27 1 c34
1 41 13 44 75 2 55 2 56 8 56 2 0 4 -34 5 -75z m-1767 -47 c3 -8 22 -11 54 -9
27 1 47 1 44 -2 -3 -3 -32 -7 -65 -9 -50 -2 -60 0 -63 15 -4 19 24 24 30 5z
m443 2 c3 -5 1 -10 -4 -10 -6 0 -11 5 -11 10 0 6 2 10 4 10 3 0 8 -4 11 -10z
m-55 -4 c-3 -2 -68 -7 -145 -10 -77 -3 -129 -1 -115 3 26 8 268 15 260 7z
m998 -3 c-16 -2 -40 -2 -55 0 -16 2 -3 4 27 4 30 0 43 -2 28 -4z m90 0 c-10
-2 -28 -2 -40 0 -13 2 -5 4 17 4 22 1 32 -1 23 -4z m55 0 c-7 -2 -19 -2 -25 0
-7 3 -2 5 12 5 14 0 19 -2 13 -5z m63 -6 c4 -4 -2 -7 -14 -7 -11 0 -23 4 -26
8 -6 10 30 9 40 -1z m-994 -91 c-3 -5 -13 2 -23 15 -27 35 -23 48 5 19 13 -14
21 -29 18 -34z m566 24 c-14 -22 -24 -19 -15 5 4 8 11 15 17 15 6 0 6 -7 -2
-20z m-393 -202 c45 -49 88 -88 95 -88 8 0 44 31 80 70 36 38 70 70 74 70 4 0
-15 -24 -42 -52 -27 -29 -63 -69 -79 -88 l-31 -34 -43 45 c-79 80 -203 219
-212 237 -9 17 13 -5 158 -160z m305 107 c-24 -24 -46 -43 -48 -40 -6 6 70 84
83 85 5 0 -11 -20 -35 -45z"/>
</g>
</svg>
