<svg version="1.0" xmlns="http://www.w3.org/2000/svg" width="90.000000pt" height="80.000000pt" viewBox="0 0 90.000000 80.000000" preserveAspectRatio="xMidYMid meet" style="width: 100px; height: auto;"> <g transform="translate(0.000000,80.000000) scale(0.100000,-0.100000)" fill="#926F34" stroke="none"> <path d="M375 733 l-49 -54 -66 1 c-36 1 -71 1 -77 1 -9 -1 -13 -24 -13 -78 l0 -77 -52 -53 -52 -53 52 -53 52 -53 0 -77 0 -77 78 0 77 0 57 -58 c45 -45 56 -62 51 -80 -3 -13 -1 -22 6 -22 7 0 11 32 11 95 0 80 -2 95 -16 95 -13 0 -15 -10 -12 -55 2 -46 1 -53 -9 -38 -7 10 -24 30 -38 44 -20 20 -24 33 -19 53 5 22 10 25 33 19 33 -9 60 -9 88 1 18 6 25 2 34 -18 10 -21 8 -28 -20 -58 -48 -51 -38 -69 12 -20 43 42 43 42 119 42 l75 0 1 77 1 77 53 53 52 53 -53 54 -53 53 -1 78 -2 78 -75 -2 -75 -2 -55 55 c-30 31 -57 56 -60 55 -3 -1 -27 -26 -55 -56z m109 -21 c20 -23 31 -46 31 -66 0 -31 -1 -31 -32 -21 -31 9 -33 13 -33 53 0 24 -5 53 -11 64 -15 29 6 15 45 -30z m-66 -77 c-2 -1 -15 -5 -29 -9 -23 -5 -28 -2 -33 21 -6 21 -1 33 26 60 l33 34 3 -51 c2 -29 2 -53 0 -55z m197 -15 c-40 -39 -40 -39 -64 -21 -20 15 -22 21 -12 39 8 16 22 22 59 24 26 2 49 2 52 0 2 -1 -14 -20 -35 -42z m-285 15 c6 -15 1 -25 -15 -37 -21 -16 -23 -16 -61 23 l-39 40 54 -3 c43 -2 55 -7 61 -23z m-92 -35 c32 -38 33 -40 17 -64 -16 -23 -18 -24 -39 -11 -18 12 -23 25 -23 65 -1 28 2 50 6 49 3 0 21 -18 39 -39z m434 -13 c-3 -38 -9 -56 -22 -65 -15 -9 -21 -7 -35 14 -16 24 -15 26 17 64 18 21 35 39 38 39 3 1 4 -23 2 -52z m-252 -15 c0 -64 -38 -82 -79 -38 -27 28 -22 41 22 60 50 22 57 20 57 -22z m75 28 c7 0 23 -9 36 -19 l24 -19 -24 -26 c-43 -46 -81 -29 -81 37 0 32 3 38 16 33 9 -3 22 -6 29 -6z m124 -152 c1 -10 6 -18 11 -18 6 0 10 -5 10 -11 0 -8 -5 -7 -15 1 -9 7 -29 13 -44 12 -39 -1 -70 32 -53 56 7 9 20 29 30 44 l17 27 22 -47 c12 -26 22 -55 22 -64z m-279 24 c0 -26 -16 -36 -57 -38 -39 -2 -42 11 -13 74 l20 44 25 -30 c14 -16 25 -39 25 -50z m143 18 c9 0 17 -8 17 -17 0 -9 8 -25 17 -36 17 -18 17 -19 0 -32 -9 -6 -17 -22 -17 -34 0 -16 -6 -21 -24 -21 -13 0 -27 -7 -30 -16 -6 -16 -8 -16 -24 0 -10 9 -26 16 -36 16 -9 0 -19 8 -22 18 -3 9 -10 25 -16 36 -6 12 -6 22 1 29 6 6 11 21 11 34 0 18 6 23 24 23 13 0 29 7 36 15 12 14 15 14 30 0 9 -8 24 -15 33 -15z m-255 4 c2 -1 1 -16 -2 -32 -7 -27 -9 -29 -62 -29 l-55 0 37 38 c28 29 43 37 59 33 11 -4 22 -8 23 -10z m502 -29 c43 -44 43 -45 14 -37 -16 4 -43 7 -61 6 -24 -2 -32 2 -37 19 -11 42 -9 47 34 56 3 0 26 -19 50 -44z m-506 -81 c8 -30 3 -40 -23 -47 -13 -3 -32 8 -60 37 l-40 41 58 -3 c53 -3 60 -6 65 -28z m104 14 c19 -19 14 -53 -12 -77 l-24 -23 -16 24 c-9 13 -19 38 -22 56 -6 31 -5 32 28 32 19 0 39 -5 46 -12z m292 -3 c0 -9 -9 -34 -21 -57 l-21 -41 -31 31 c-29 29 -30 33 -17 57 11 20 21 25 52 25 28 0 38 -4 38 -15z m104 -26 c-36 -36 -44 -40 -63 -30 -20 11 -29 50 -14 64 3 4 31 7 62 7 l56 0 -41 -41z m-454 -89 c0 -3 -18 -23 -40 -45 l-39 -38 0 55 c1 47 4 57 23 66 17 8 24 6 38 -12 10 -11 18 -23 18 -26z m138 38 c7 -7 12 -29 12 -51 0 -35 -2 -38 -22 -31 -13 3 -38 14 -57 24 l-34 17 29 26 c31 29 53 34 72 15z m119 -10 c13 -12 23 -25 23 -29 0 -9 -42 -32 -77 -43 -21 -7 -23 -4 -23 28 0 19 3 41 6 50 9 23 44 20 71 -6z m125 10 c15 -12 32 -119 19 -117 -3 0 -21 18 -39 39 -29 34 -31 41 -21 64 14 29 19 31 41 14z m-333 -77 c20 -15 22 -21 12 -39 -10 -18 -21 -22 -61 -22 -28 0 -50 2 -50 4 0 6 64 73 70 75 3 0 16 -8 29 -18z m294 -16 c20 -20 37 -37 37 -40 0 -3 -23 -5 -50 -5 -44 0 -52 3 -62 25 -10 21 -8 28 8 40 25 19 23 20 67 -20z"></path> <path d="M380 170 c0 -19 3 -21 12 -12 9 9 9 15 0 24 -9 9 -12 7 -12 -12z"></path>    </g> </svg>