<?xml version="1.0" standalone="no"?>
<!DOCTYPE svg PUBLIC "-//W3C//DTD SVG 20010904//EN"
 "http://www.w3.org/TR/2001/REC-SVG-20010904/DTD/svg10.dtd">
<svg version="1.0" xmlns="http://www.w3.org/2000/svg"
 width="95.000000pt" height="108.000000pt" viewBox="0 0 95.000000 108.000000"
 preserveAspectRatio="xMidYMid meet">
<g transform="translate(0.000000,108.000000) scale(0.100000,-0.100000)"
fill="#926F34" stroke="none">
<path d="M420 805 l-54 -55 -78 0 -78 0 0 -79 0 -78 -55 -52 -55 -52 55 -54
55 -53 0 -76 0 -76 76 0 75 0 56 -56 56 -56 57 57 57 56 73 -2 73 -2 -2 76 -2
76 58 55 58 55 -59 57 -58 58 4 73 3 73 -77 0 -78 0 -53 55 -53 55 -54 -55z
m96 -106 c-22 -22 -43 -39 -46 -39 -3 0 -23 17 -44 39 l-38 39 44 40 43 40 41
-40 41 -41 -41 -38z m-159 -36 l-2 -58 -57 -3 -58 -3 0 61 0 60 59 0 59 0 -1
-57z m355 -9 c1 -36 -1 -68 -6 -72 -5 -3 -6 0 -2 6 5 9 -10 12 -53 12 l-59 0
-4 60 -3 60 62 0 61 0 4 -66z m-200 4 c24 23 46 42 48 42 3 0 3 -27 2 -60 l-4
-60 68 0 68 0 -50 -45 -49 -45 52 -48 52 -48 -71 4 -70 4 4 -61 c1 -33 1 -61
-2 -61 -2 0 -23 19 -46 41 l-43 42 -40 -42 c-22 -22 -42 -41 -46 -41 -4 0 -5
27 -3 60 l3 60 -69 0 -70 0 30 23 c16 12 40 32 52 44 l21 22 -54 48 -53 48 71
-3 72 -3 -3 67 -4 68 45 -49 45 -50 44 43z m-244 -130 l41 -37 -41 -40 c-22
-23 -42 -41 -44 -41 -2 0 -21 18 -43 39 l-40 40 37 39 c20 21 40 39 43 38 4
-1 25 -18 47 -38z m497 2 l39 -40 -39 -40 c-21 -22 -44 -40 -50 -39 -5 0 -25
19 -44 40 l-34 40 38 39 c22 22 42 40 45 40 3 0 24 -18 45 -40z m-55 -221 l0
-59 -59 0 -59 0 -4 61 c-1 33 -2 61 -1 62 1 1 29 0 62 -1 l61 -4 0 -59z m-352
4 l-3 -58 -57 -3 -56 -3 -4 61 -3 60 63 0 63 0 -3 -57z m157 -33 l39 -40 -41
-42 -41 -41 -36 37 c-20 20 -42 36 -48 36 -7 0 8 20 32 45 24 25 47 45 50 45
3 0 24 -18 45 -40z"/>
</g>
</svg>
